<svg xmlns="http://www.w3.org/2000/svg" height="48" viewBox="0 -960 960 960" width="48"><path d="M293.615-144q-28.442 0-48.413-19.971-19.971-19.971-19.971-48.413v-523.462H185v-43.77h168.154v-30.154h254.692v30.154H776v43.77h-40.231v523.462q0 27.782-20.3 48.083Q695.167-144 667.385-144h-373.77ZM692-735.846H269v523.462q0 10.769 7.308 17.692 7.307 6.923 17.307 6.923h373.77q9.231 0 16.923-7.692Q692-203.154 692-212.384v-523.462ZM385.461-271.692h43.77v-382.231h-43.77v382.231Zm147.308 0h43.77v-382.231h-43.77v382.231ZM269-735.846v548.077-548.077Z"/></svg>