<svg xmlns="http://www.w3.org/2000/svg" height="48" viewBox="0 -960 960 960" width="48"><path d="M762.923-133q-39.154 0-69.077-24.846-29.923-24.846-34.077-61.846H441.462q-60.071 0-99.459-39.438-39.388-39.437-39.388-99.577 0-60.139 39.388-99.908 39.388-39.77 99.459-39.77H520q43.81 0 73.943-29.933 30.134-29.933 30.134-73.461 0-43.529-30.071-73.644-30.072-30.115-73.793-30.115H301.231q-5.385 37-35.577 61.846-30.192 24.846-68.577 24.846-43.353 0-73.715-29.968Q93-678.783 93-722.891q0-43.34 30.362-74.224Q153.724-828 197.077-828q38.385 0 68.577 25.346t35.99 61.346H520q60.483 0 100.164 39.646 39.682 39.645 39.682 100.077 0 60.431-39.682 99.7-39.681 39.27-100.164 39.27h-78.538q-43.398 0-73.237 30.141-29.84 30.141-29.84 73.961 0 43.821 29.84 73.436 29.839 29.615 73.237 29.615h218.307q5.451-35.812 34.726-61.252 29.274-25.44 68.428-25.44 43.769 0 74.423 30.174Q868-281.805 868-237.403q0 43.634-30.654 74.018Q806.692-133 762.923-133ZM196.761-662.615q24.931 0 43.277-17.531 18.347-17.53 18.347-42.461 0-24.931-18.119-43.278-18.118-18.346-43.049-18.346t-42.689 18.118q-17.759 18.118-17.759 43.05 0 24.931 17.531 42.689 17.53 17.759 42.461 17.759Z"/></svg>