<svg xmlns="http://www.w3.org/2000/svg" height="48" viewBox="0 -960 960 960" width="48"><path d="M357.613-134q-60.772 0-102.193-41.725Q214-217.45 214-278.077v-346.538q-35-14-57.5-40.511-22.5-26.51-22.5-58.911 0-43.957 29.086-73.46Q192.171-827 235.409-827q43.238 0 72.799 29.891 29.561 29.892 29.561 72.594 0 32.203-23 59.051-23 26.849-57 40.849v346.538q0 41.902 29.44 71.105 29.44 29.203 71.133 29.203 41.219 0 70.746-29.203 29.527-29.203 29.527-71.105v-404.615q0-60.308 41.421-102.308 41.42-42 102.192-42Q663-827 705-785q42 42 42 102.308v346.307q34 15 57 41.506 23 26.505 23 58.9 0 43.602-29.836 72.791Q767.328-134 724.706-134q-43.123 0-72.299-29.188-29.176-29.189-29.176-72.802 0-32.393 22.5-59.394 22.5-27.001 57.5-41.001v-346.307q0-40.272-30.177-70.406-30.178-30.133-70.896-30.133-40.719 0-70.246 30.133-29.527 30.134-29.527 70.406v404.615q0 60.627-42 102.352T357.613-134ZM235.385-667q24.628 0 41.622-16.493Q294-699.987 294-724.615q0-24.629-16.881-41.622-16.881-16.994-41.734-16.994-24.629 0-41.122 16.881-16.494 16.881-16.494 41.735 0 24.628 16.494 41.122Q210.756-667 235.385-667Zm489.23 489.231q24.629 0 41.622-16.494 16.994-16.493 16.994-41.122 0-24.628-16.881-41.622Q749.469-294 724.615-294q-24.628 0-41.122 16.881Q667-260.238 667-235.385q0 24.629 16.493 41.122 16.494 16.494 41.122 16.494Zm-489.23-546.846Zm489.23 489.23Z"/></svg>