<svg xmlns="http://www.w3.org/2000/svg" height="48" viewBox="0 -960 960 960" width="48"><path d="m607.846-147.077-253.692-89.384-165.154 65q-15.923 7.692-29.962-1.385Q145-181.923 145-200.077v-515q0-11.692 5.692-21.039 5.692-9.346 16.385-12.807l187.077-65 253.692 88.384L772-789.77q14.923-7.461 29.462.847Q816-780.616 816-763.231v522.308q0 11.231-7.346 19.346-7.346 8.116-15.808 11.346l-185 63.154ZM583-201.154v-489l-205-71.461v490l205 70.461Zm43.769 0 145.462-47.307v-497.001l-145.462 55.308v489Zm-438-15.384 145.462-55.077v-490l-145.462 48.846v496.231Zm438-473.616v489-489Zm-292.538-71.461v490-490Z"/></svg>