<svg xmlns="http://www.w3.org/2000/svg" height="48" viewBox="0 -960 960 960" width="48"><path d="M212.384-144q-27.782 0-48.083-20.301T144-212.384v-535.232q0-27.782 20.301-48.083T212.384-816h237.385v43.769H212.384q-9.23 0-16.923 7.692-7.692 7.693-7.692 16.923v535.232q0 9.23 7.692 16.923 7.693 7.692 16.923 7.692h535.232q9.23 0 16.923-7.692 7.692-7.693 7.692-16.923v-237.385H816v237.385q0 27.782-20.301 48.083T747.616-144H212.384Zm173.231-210.384-31-31.231 386.616-386.616H551.308V-816H816v264.692h-43.769V-741L385.615-354.384Z"/></svg>